# xmcd
#
# Track frame offsets:
#	150
#	16055
#	36050
#	50405
#	81387
#	95582
#	110712
#	129940
#	150337
#	177742
#	200325
#	220165
#	244440
#
# Disc length: 3461 seconds
#
# Revision: 1
# Processed by: cddbd v1.4PL0 Copyright (c) Steve Scherf et al.
# Submitted via: EasyCDDAExtractor 6.0.0.1
#
DISCID=af0d830d
DTITLE=Various Artist - The Friendly Travelers
DYEAR=1900
DGENRE=Gospel
TTITLE0=Traditional - At The Cross
TTITLE1=Traditional - Walk with me Lord
TTITLE2=Traditional - Oh when the saints
TTITLE3=David Howard - Motherless child
TTITLE4=Traditional - Glory, glory hallelujah
TTITLE5=Traditional - Wade on the river
TTITLE6=Alfred Penn - The real meaning of love
TTITLE7=Traditional - Old rugged cross
TTITLE8=Alfred Penn - Pray a prayer
TTITLE9=L.D. Hiriams - Lord, hear me when I pray
TTITLE10=Traditional - Down by the riverside
TTITLE11=Traditional - Amazing grace
TTITLE12=Traditional - Just in time
EXTD=
EXTT0=
EXTT1=
EXTT2=
EXTT3=
EXTT4=
EXTT5=
EXTT6=
EXTT7=
EXTT8=
EXTT9=
EXTT10=
EXTT11=
EXTT12=
PLAYORDER=
